<svg xmlns="http://www.w3.org/2000/svg" version="1.1" xmlns:xlink="http://www.w3.org/1999/xlink" xmlns:svgjs="http://svgjs.com/svgjs" width="1440" height="560" preserveAspectRatio="none" viewBox="0 0 1440 560"><g mask="url(&quot;#SvgjsMask4859&quot;)" fill="none"><rect width="1440" height="560" x="0" y="0" fill="url(#SvgjsLinearGradient4860)"></rect><path d="M1440 0L1434.56 0L1440 271.14z" fill="rgba(255, 255, 255, .1)"></path><path d="M1434.56 0L1440 271.14L1440 384.94L908.8499999999999 0z" fill="rgba(255, 255, 255, .075)"></path><path d="M908.8499999999999 0L1440 384.94L1440 492.02L748.53 0z" fill="rgba(255, 255, 255, .05)"></path><path d="M748.53 0L1440 492.02L1440 515.46L470.35999999999996 0z" fill="rgba(255, 255, 255, .025)"></path><path d="M0 560L317.91 560L0 471.27z" fill="rgba(0, 0, 0, .1)"></path><path d="M0 471.27L317.91 560L742.1300000000001 560L0 332.42999999999995z" fill="rgba(0, 0, 0, .075)"></path><path d="M0 332.43L742.1300000000001 560L821.8600000000001 560L0 223.85000000000002z" fill="rgba(0, 0, 0, .05)"></path><path d="M0 223.85000000000002L821.8600000000001 560L829.3500000000001 560L0 157.46000000000004z" fill="rgba(0, 0, 0, .025)"></path></g><defs><mask id="SvgjsMask4859"><rect width="1440" height="560" fill="#ffffff"></rect></mask><linearGradient x1="15.28%" y1="139.29%" x2="84.72%" y2="-39.29%" gradientUnits="userSpaceOnUse" id="SvgjsLinearGradient4860"><stop stop-color="rgba(73, 162, 255, 1)" offset="0"></stop><stop stop-color="rgba(170, 195, 227, 1)" offset="1"></stop></linearGradient></defs></svg>