<svg xmlns="http://www.w3.org/2000/svg" version="1.1" xmlns:xlink="http://www.w3.org/1999/xlink" xmlns:svgjs="http://svgjs.com/svgjs" width="560" height="1440" preserveAspectRatio="none" viewBox="0 0 560 1440"><g mask="url(&quot;#SvgjsMask1016&quot;)" fill="none"><rect width="560" height="1440" x="0" y="0" fill="url(#SvgjsLinearGradient1017)"></rect><path d="M560 0L491.84000000000003 0L560 52.08z" fill="rgba(255, 255, 255, .1)"></path><path d="M491.84000000000003 0L560 52.08L560 162.34L468.50000000000006 0z" fill="rgba(255, 255, 255, .075)"></path><path d="M468.5 0L560 162.34L560 552.59L379.86 0z" fill="rgba(255, 255, 255, .05)"></path><path d="M379.86 0L560 552.59L560 1085.25L345.08000000000004 0z" fill="rgba(255, 255, 255, .025)"></path><path d="M0 1440L75.97 1440L0 1325.03z" fill="rgba(0, 0, 0, .1)"></path><path d="M0 1325.03L75.97 1440L144.31 1440L0 693.22z" fill="rgba(0, 0, 0, .075)"></path><path d="M0 693.22L144.31 1440L151.81 1440L0 367z" fill="rgba(0, 0, 0, .05)"></path><path d="M0 367L151.81 1440L430.44 1440L0 155.52z" fill="rgba(0, 0, 0, .025)"></path></g><defs><mask id="SvgjsMask1016"><rect width="560" height="1440" fill="#ffffff"></rect></mask><linearGradient x1="-39.29%" y1="84.72%" x2="139.29%" y2="15.28%" gradientUnits="userSpaceOnUse" id="SvgjsLinearGradient1017"><stop stop-color="rgba(73, 162, 255, 1)" offset="0"></stop><stop stop-color="rgba(170, 195, 227, 1)" offset="1"></stop></linearGradient></defs></svg>